<!-- icon666.com - MILLIONS vector ICONS FREE --><svg id="Capa_1" enable-background="new 0 0 512 512" viewBox="0 0 512 512" xmlns="http://www.w3.org/2000/svg"><g><g><circle cx="239.484" cy="189.935" r="8.258"></circle><circle cx="305.548" cy="189.935" r="8.258"></circle><path d="m395.917 301.437c8.093-6.887 14.066-16.222 16.739-26.918l1.607-6.427-5.924-2.963c-17.561-8.779-28.469-26.429-28.469-46.06v-4.359c0-5.402-1.312-10.5-3.62-15.007 18.459-16.995 31.206-39.524 36.147-64.227.335-1.678.506-3.397.506-5.108 0-12.521-8.932-23.285-21.239-25.592l-11.794-2.21v-38.139c0-17.299-10.922-32.893-27.179-38.805l-61.334-22.303c-6.057-2.202-12.396-3.319-18.841-3.319-6.444 0-12.783 1.117-18.842 3.319l-61.334 22.304c-16.257 5.912-27.179 21.506-27.179 38.805v38.139l-11.794 2.211c-12.307 2.307-21.239 13.07-21.239 25.591 0 1.71.17 3.429.506 5.107 4.94 24.704 17.688 47.233 36.147 64.228-2.308 4.507-3.62 9.605-3.62 15.007v4.359c0 19.631-10.908 37.281-28.468 46.061l-5.924 2.963 1.607 6.427c2.874 11.496 9.568 21.46 18.667 28.484-10.646 5.866-19.801 14.343-26.597 24.916l-48.96 76.16c-6.165 9.589-9.422 20.681-9.422 32.079 0 32.712 26.613 59.325 59.325 59.325h74.226c3.409 9.611 12.588 16.516 23.354 16.516h16.516c10.765 0 19.944-6.905 23.354-16.516h183.097v-123.838c-.001-32.038-20.691-60.014-50.019-70.21zm-90.369 111.466h-24.774v-5.459l73.842-96.382 8.739 1.165v166.74h-34.453c.917-2.585 1.42-5.363 1.42-8.258v-33.032c.001-13.659-11.114-24.774-24.774-24.774zm-120.45 41.291 13.095-13.095v26.189zm1.417 24.774h-26.19l13.095-13.095zm0-49.549-13.095 13.095-13.095-13.095zm61.227 0h-24.774c-2.894 0-5.673.504-8.258 1.42v-9.678c0-4.553 3.705-8.258 8.258-8.258h16.516c4.553 0 8.258 3.705 8.258 8.258zm-24.774 16.516h24.774v16.516h-24.774c-4.553 0-8.258-3.705-8.258-8.258s3.704-8.258 8.258-8.258zm16.516-49.548h-16.516c-10.765 0-19.944 6.905-23.354 16.516h-17.937v-102.359l7.679-.768 74.902 97.671v10.592c-.062.047-.124.096-.185.145-1.476-12.261-11.937-21.797-24.589-21.797zm-49.549-280.774c4.553 0 8.258 3.705 8.258 8.258v8.258h16.516v-8.258c0-4.803-1.378-9.287-3.753-13.088l53.302-9.994v3.145l-35.451 35.451c-5.972 5.972-13.911 9.26-22.356 9.26-13.66 0-24.774-11.113-24.774-24.774 0-4.553 3.705-8.258 8.258-8.258zm41.291-49.548v8.258c0 4.553-3.705 8.258-8.258 8.258s-8.258-3.705-8.258-8.258c0-13.66 11.114-24.774 24.774-24.774s24.774 11.114 24.774 24.774v9.663l-20.543 3.851c2.542-3.89 4.027-8.531 4.027-13.514v-8.258zm115.613 66.064v-8.258c0-4.553 3.705-8.258 8.258-8.258s8.258 3.705 8.258 8.258c0 13.661-11.114 24.774-24.774 24.774-8.445 0-16.384-3.289-22.355-9.259l-35.452-35.451v-3.145l53.302 9.994c-2.375 3.8-3.753 8.284-3.753 13.087v8.258zm-82.581 99.097h16.516v16.516h-16.516zm48.128 33.032c-3.409 9.611-12.588 16.516-23.354 16.516h-33.032c-10.765 0-19.944-6.905-23.354-16.516zm-48.128 33.032h16.516v16.516h-16.516zm33.032 15.096v-15.927c6.099-1.243 11.712-3.836 16.516-7.45v.023c0 10.766-6.904 19.945-16.516 23.354zm0-64.644v-15.096c7.027 2.492 12.603 8.068 15.096 15.096zm-49.548 0h-15.096c2.492-7.027 8.068-12.603 15.096-15.096zm-16.516 41.268c4.804 3.614 10.418 6.207 16.516 7.45v15.927c-9.611-3.41-16.516-12.588-16.516-23.354zm48.838 41.313-7.548 10.566-7.548-10.566zm.71 27.42 21.039-29.455c10.625-3.468 19.366-11.133 24.257-21.031l9.667 1.289-54.964 71.741v-22.544zm49.549-108.584c0 1.192-.058 2.375-.142 3.552-1.684-21.235-19.489-38.002-41.148-38.002h-8.258v-16.516h-16.516v16.516h-8.259c-21.659 0-39.464 16.767-41.148 38.002-.086-1.177-.142-2.36-.142-3.552v-83.998h115.613zm-57.807-130.125 29.612 29.611h-59.224zm49.549-36.453c-4.553 0-8.258-3.705-8.258-8.258v-8.258h-16.517v8.258c0 4.984 1.484 9.625 4.027 13.514l-20.543-3.851v-9.663c0-13.66 11.114-24.774 24.774-24.774s24.774 11.114 24.774 24.774c.001 4.553-3.704 8.258-8.257 8.258zm-78.846 245.707 21.039 29.455v22.562l-55.57-72.462 10.062-1.006c4.849 10.102 13.693 17.933 24.469 21.451zm136.652 112.81 13.095 13.095-13.095 13.095zm24.774 24.774 13.095 13.095h-26.189zm11.679-11.678 13.095-13.095v26.189zm13.095-82.547v46.092l-24.774 24.774-24.774-24.774v-103.294c28.29 4.085 49.548 28.559 49.548 57.202zm-34.788-95.329c-4.525 10.144-13.665 17.7-24.672 20.129l-38.746-5.166c10.1-11.719 15.625-26.492 15.625-42.121v-1.417c7.549 0 14.509-2.551 20.078-6.828 4.873 14.483 14.539 26.986 27.715 35.403zm-47.792-45.092v-33.032c9.107 0 16.516 7.41 16.516 16.516s-7.41 16.516-16.516 16.516zm49.548-100.858c0 .625-.063 1.252-.186 1.867-4.233 21.172-15.125 40.487-30.895 55.099-5.275-3.57-11.633-5.657-18.467-5.657v-17.347c18.823-3.836 33.032-20.519 33.032-40.459 0-1.566-.153-3.096-.431-4.582l9.181 1.722c4.5.843 7.766 4.779 7.766 9.357zm-49.341-89.223c9.755 3.547 16.309 12.903 16.309 23.283v35.042l-26.851-5.034c6.252-4.502 10.335-11.838 10.335-20.113 0-22.767-18.523-41.29-41.29-41.29-9.288 0-17.868 3.084-24.774 8.281v-23.899c1.671.363 3.322.838 4.938 1.426zm-165.369 23.282c0-10.379 6.554-19.736 16.309-23.283l61.333-22.303c1.617-.587 3.268-1.062 4.939-1.426v23.898c-6.906-5.197-15.486-8.282-24.774-8.282-22.767 0-41.29 18.523-41.29 41.29 0 8.275 4.083 15.611 10.335 20.113l-26.851 5.034v-35.041zm-32.846 67.807c-.123-.613-.186-1.242-.186-1.866 0-4.579 3.266-8.515 7.767-9.358l9.181-1.722c-.279 1.487-.431 3.017-.431 4.583 0 19.94 14.209 36.623 33.032 40.459v17.347c-6.836 0-13.192 2.087-18.467 5.657-15.771-14.61-26.663-33.927-30.896-55.1zm49.363 65.96v33.032c-9.107 0-16.516-7.41-16.516-16.516s7.409-16.516 16.516-16.516zm-47.793 78.124c13.175-8.416 22.841-20.919 27.714-35.404 5.569 4.278 12.53 6.828 20.078 6.828v1.417c0 15.405 5.366 29.98 15.19 41.617l-33.814 3.382c-2.773.278-5.505.706-8.191 1.278-9.393-3.176-16.985-10.163-20.977-19.118zm-67.82 159.841c0-8.225 2.35-16.229 6.799-23.148l48.96-76.16c6.552-10.191 15.919-17.881 26.821-22.299v98.351h-21.354c-9.737 0-18.891 3.792-25.777 10.677l11.679 11.679c2.319-2.32 5.112-3.992 8.157-4.938l23.874 23.873-24.774 24.774h-11.577c-23.604 0-42.808-19.204-42.808-42.809zm156.903 59.325h-16.516c-4.553 0-8.258-3.705-8.258-8.258v-9.678c2.585.917 5.364 1.42 8.258 1.42h24.774v8.258c0 4.553-3.705 8.258-8.258 8.258zm24.774-16.516v-37.869l9.26-9.26c1.56-1.561 3.634-2.42 5.838-2.42h26.191c4.553 0 8.258 3.705 8.258 8.258v33.032c0 4.553-3.705 8.258-8.258 8.258h-41.29v.001z"></path></g></g></svg>